{"title":"Paranormal.State.S06E06.HDTV.XviD-tNe.avi","uid":6344814,"size":183355392,"categoryP":"video","categoryS":"tv_shows","magnet":"?xt=urn:btih:ec11bc2e28c0fe7435bb949563a6f4eb67722677&amp;dn=Paranormal.State.S06E06.HDTV.XviD-tNe.avi&amp;tr=udp%3A%2F%2Ftracker.openbittorrent.com%3A80&amp;tr=udp%3A%2F%2Fopen.demonii.com%3A1337&amp;tr=udp%3A%2F%2Ftracker.coppersurfer.tk%3A6969&amp;tr=udp%3A%2F%2Fexodus.desync.com%3A6969","seeders":1,"leechers":0,"uploader":"trialNerror","files":1,"time":1303800388,"description":"Format                           : AVI\nFormat/Info                      : Audio Video Interleave\nFile size                        : 175 MiB\nDuration                         : 21mn 39s\nOverall bit rate                 : 1 129 Kbps\nWriting application              : VirtualDubMod 1.5.10.2 (build 2542/release)\nWriting library                  : VirtualDubMod build 2542/release\n\nVideo\nID                               : 0\nFormat                           : MPEG-4 Visual\nFormat profile                   : Advanced Simple@L5\nFormat settings, BVOP            : Yes\nFormat settings, QPel            : No\nFormat settings, GMC             : No warppoints\nFormat settings, Matrix          : Default (H.263)\nCodec ID                         : XVID\nCodec ID/Hint                    : XviD\nDuration                         : 21mn 39s\nBit rate                         : 996 Kbps\nWidth                            : 624 pixels\nHeight                           : 352 pixels\nDisplay aspect ratio             : 16:9\nFrame rate                       : 29.970 fps\nColor space                      : YUV\nChroma subsampling               : 4:2:0\nBit depth                        : 8 bits\nScan type                        : Progressive\nBits/(Pixel*Frame)               : 0.151\nStream size                      : 154 MiB (88%)\nWriting library                  : XviD 58\n\nAudio\nID                               : 1\nFormat                           : MPEG Audio\nFormat version                   : Version 1\nFormat profile                   : Layer 3\nMode                             : Joint stereo\nMode extension                   : MS Stereo\nCodec ID                         : 55\nCodec ID/Hint                    : MP3\nDuration                         : 21mn 39s\nBit rate mode                    : Variable\nBit rate                         : 118 Kbps\nNominal bit rate                 : 128 Kbps\nChannel(s)                       : 2 channels\nSampling rate                    : 48.0 KHz\nStream size                      : 18.4 MiB (10%)\nAlignment                        : Aligned on interleaves\nInterleave, duration             : 24 ms (0.72 video frame)\nInterleave, preload duration     : 544 ms\nWriting library                  : LAME3.99a\nEncoding settings                : -m j -V 5 -q 2 -lowpass 17 --abr 128","torrent":{"xt":"urn:btih:ec11bc2e28c0fe7435bb949563a6f4eb67722677","amp;dn":"Paranormal.State.S06E06.HDTV.XviD-tNe.avi","amp;tr":["udp%3A%2F%2Ftracker.openbittorrent.com%3A80","udp%3A%2F%2Fopen.demonii.com%3A1337","udp%3A%2F%2Ftracker.coppersurfer.tk%3A6969","udp%3A%2F%2Fexodus.desync.com%3A6969"],"infoHash":"ec11bc2e28c0fe7435bb949563a6f4eb67722677","infoHashBuffer":{"type":"Buffer","data":[236,17,188,46,40,192,254,116,53,187,148,149,99,166,244,235,103,114,38,119]},"announce":[],"urlList":[]}}